<svg width="10" height="10" viewBox="0 0 10 10" fill="none" xmlns="http://www.w3.org/2000/svg">
<path d="M5 0C2.2375 0 7.29772e-07 2.2375 7.29772e-07 5C-0.00056638 6.04964 0.329408 7.0728 0.943109 7.92434C1.55681 8.77587 2.42307 9.41254 3.419 9.744C3.669 9.7875 3.7625 9.6375 3.7625 9.506C3.7625 9.3875 3.756 8.994 3.756 8.575C2.5 8.8065 2.175 8.269 2.075 7.9875C2.0185 7.8435 1.775 7.4 1.5625 7.281C1.3875 7.1875 1.1375 6.956 1.556 6.95C1.95 6.9435 2.231 7.3125 2.325 7.4625C2.775 8.2185 3.494 8.006 3.781 7.875C3.825 7.55 3.956 7.3315 4.1 7.2065C2.9875 7.0815 1.825 6.65 1.825 4.7375C1.825 4.1935 2.0185 3.744 2.3375 3.3935C2.2875 3.2685 2.1125 2.756 2.3875 2.0685C2.3875 2.0685 2.806 1.9375 3.7625 2.5815C4.16953 2.46853 4.59008 2.41167 5.0125 2.4125C5.4375 2.4125 5.8625 2.4685 6.2625 2.581C7.2185 1.931 7.6375 2.069 7.6375 2.069C7.9125 2.7565 7.7375 3.269 7.6875 3.394C8.006 3.744 8.2 4.1875 8.2 4.7375C8.2 6.6565 7.0315 7.0815 5.919 7.2065C6.1 7.3625 6.2565 7.6625 6.2565 8.1315C6.2565 8.8 6.25 9.3375 6.25 9.5065C6.25 9.6375 6.344 9.7935 6.594 9.7435C7.58652 9.4084 8.44896 8.7705 9.05995 7.91958C9.67094 7.06865 9.99972 6.04756 10 5C10 2.2375 7.7625 0 5 0Z" fill="url(#paint0_linear_3_10)"/>
<defs>
<linearGradient id="paint0_linear_3_10" x1="5" y1="-3.05569e-08" x2="6" y2="14.5" gradientUnits="userSpaceOnUse">
<stop/>
<stop offset="1" stop-color="white"/>
</linearGradient>
</defs>
</svg>
