<svg width="10" height="10" viewBox="0 0 10 10" fill="none" xmlns="http://www.w3.org/2000/svg">
<path d="M4.5015 6.003C5.33076 6.003 6.003 5.33076 6.003 4.5015C6.003 3.67224 5.33076 3 4.5015 3C3.67224 3 3 3.67224 3 4.5015C3 5.33076 3.67224 6.003 4.5015 6.003Z" fill="url(#paint0_linear_0_1)"/>
<path d="M8.975 2.662C8.96996 2.28331 8.89907 1.90839 8.7655 1.554C8.64967 1.25508 8.47277 0.983599 8.24609 0.756915C8.0194 0.530231 7.74792 0.353325 7.449 0.2375C7.09917 0.106179 6.72959 0.0351706 6.356 0.0275C5.875 0.00600003 5.7225 0 4.5015 0C3.2805 0 3.124 3.35276e-08 2.6465 0.0275C2.27308 0.035227 1.90367 0.106234 1.554 0.2375C1.25503 0.353245 0.983511 0.530122 0.756817 0.756816C0.530122 0.983511 0.353245 1.25503 0.2375 1.554C0.105916 1.90357 0.0350616 2.27306 0.028 2.6465C0.0065 3.128 0 3.2805 0 4.5015C0 5.7225 -3.72529e-09 5.8785 0.028 6.3565C0.0355 6.7305 0.106 7.0995 0.2375 7.45C0.353439 7.74888 0.530448 8.02029 0.757218 8.24689C0.983988 8.47348 1.25553 8.65029 1.5545 8.766C1.90322 8.9026 2.27269 8.97869 2.647 8.991C3.1285 9.0125 3.281 9.019 4.502 9.019C5.723 9.019 5.8795 9.019 6.357 8.991C6.73058 8.98364 7.10018 8.9128 7.45 8.7815C7.74885 8.66554 8.02025 8.48859 8.24692 8.26192C8.47359 8.03525 8.65054 7.76385 8.7665 7.465C8.898 7.115 8.9685 6.746 8.976 6.3715C8.9975 5.8905 9.004 5.738 9.004 4.5165C9.003 3.2955 9.003 3.1405 8.975 2.662ZM4.4985 6.8105C3.2215 6.8105 2.187 5.776 2.187 4.499C2.187 3.222 3.2215 2.1875 4.4985 2.1875C5.11155 2.1875 5.69949 2.43103 6.13298 2.86452C6.56647 3.29801 6.81 3.88595 6.81 4.499C6.81 5.11205 6.56647 5.69999 6.13298 6.13348C5.69949 6.56697 5.11155 6.8105 4.4985 6.8105ZM6.902 2.641C6.8312 2.64107 6.76108 2.62717 6.69566 2.60011C6.63023 2.57304 6.57079 2.53334 6.52072 2.48328C6.47066 2.43321 6.43096 2.37377 6.40389 2.30834C6.37683 2.24292 6.36293 2.1728 6.363 2.102C6.363 2.03125 6.37694 1.96119 6.40401 1.89583C6.43108 1.83047 6.47077 1.77107 6.5208 1.72105C6.57082 1.67102 6.63022 1.63133 6.69558 1.60426C6.76094 1.57719 6.831 1.56325 6.90175 1.56325C6.9725 1.56325 7.04256 1.57719 7.10792 1.60426C7.17328 1.63133 7.23268 1.67102 7.2827 1.72105C7.33273 1.77107 7.37242 1.83047 7.39949 1.89583C7.42657 1.96119 7.4405 2.03125 7.4405 2.102C7.4405 2.4 7.1995 2.641 6.902 2.641Z" fill="url(#paint1_linear_0_1)"/>
<defs>
<linearGradient id="paint0_linear_0_1" x1="4.5015" y1="3" x2="4.5015" y2="6.003" gradientUnits="userSpaceOnUse">
<stop stop-color="#973AC2"/>
<stop offset="1" stop-color="#FF9E0D"/>
</linearGradient>
<linearGradient id="paint1_linear_0_1" x1="4.502" y1="0" x2="4.502" y2="9.019" gradientUnits="userSpaceOnUse">
<stop stop-color="#E8D000"/>
<stop offset="1" stop-color="#E8008B"/>
</linearGradient>
</defs>
</svg>
