<svg width="9" height="9" viewBox="0 0 9 9" fill="none" xmlns="http://www.w3.org/2000/svg">
<path d="M7.6675 7.6695H6.335V5.581C6.335 5.083 6.325 4.442 5.64 4.442C4.9455 4.442 4.8395 4.984 4.8395 5.5445V7.6695H3.5065V3.375H4.7865V3.96H4.804C4.983 3.623 5.418 3.2665 6.068 3.2665C7.418 3.2665 7.668 4.1555 7.668 5.312L7.6675 7.6695ZM2.0015 2.7875C1.89978 2.78763 1.79903 2.76768 1.70503 2.7288C1.61103 2.68992 1.52563 2.63287 1.45373 2.56092C1.38182 2.48897 1.32483 2.40353 1.28601 2.30951C1.24718 2.21548 1.2273 2.11472 1.2275 2.013C1.2276 1.85992 1.27309 1.7103 1.35822 1.58307C1.44335 1.45584 1.5643 1.35672 1.70577 1.29823C1.84723 1.23974 2.00287 1.22451 2.15299 1.25447C2.30311 1.28443 2.44098 1.35824 2.54915 1.46655C2.65733 1.57487 2.73096 1.71283 2.76073 1.86299C2.79049 2.01315 2.77506 2.16877 2.71639 2.31016C2.65772 2.45155 2.55843 2.57237 2.4311 2.65734C2.30376 2.7423 2.15458 2.7876 2.0015 2.7875ZM2.6695 7.6695H1.333V3.375H2.67L2.6695 7.6695ZM8.335 0H0.6645C0.2965 0 0 0.29 0 0.6485V8.3515C0 8.71 0.297 9 0.664 9H8.333C8.7 9 9 8.71 9 8.3515V0.6485C9 0.29 8.7 0 8.333 0H8.335Z" fill="url(#paint0_linear_3_6)"/>
<defs>
<linearGradient id="paint0_linear_3_6" x1="4.5" y1="0" x2="4.5" y2="9" gradientUnits="userSpaceOnUse">
<stop stop-color="#17517A"/>
<stop offset="1" stop-color="#008FF7"/>
</linearGradient>
</defs>
</svg>
