<svg width="10" height="10" viewBox="0 0 10 10" fill="none" xmlns="http://www.w3.org/2000/svg">
<path d="M0.00200669 10L0.678007 7.516C0.232576 6.75243 -0.00144532 5.884 6.71612e-06 5C6.71612e-06 2.2385 2.23851 0 5.00001 0C7.76151 0 10 2.2385 10 5C10 7.7615 7.76151 10 5.00001 10C4.1164 10.0014 3.24833 9.76758 2.48501 9.3225L0.00200669 10ZM3.19551 2.654C3.13094 2.65801 3.06784 2.67502 3.01001 2.704C2.95577 2.73471 2.90625 2.77311 2.86301 2.818C2.80301 2.8745 2.76901 2.9235 2.73251 2.971C2.54771 3.2115 2.44831 3.50671 2.45001 3.81C2.45101 4.055 2.51501 4.2935 2.61501 4.5165C2.81951 4.9675 3.15601 5.445 3.60051 5.8875C3.70751 5.994 3.81201 6.101 3.92451 6.2005C4.4762 6.68623 5.13363 7.03652 5.84451 7.2235L6.12901 7.267C6.22151 7.272 6.31401 7.265 6.40701 7.2605C6.55263 7.25298 6.69481 7.21355 6.82351 7.145C6.88898 7.11127 6.95288 7.07457 7.01501 7.035C7.01501 7.035 7.03651 7.021 7.07751 6.99C7.14501 6.94 7.18651 6.9045 7.24251 6.846C7.28401 6.803 7.32001 6.7525 7.34751 6.695C7.38651 6.6135 7.42551 6.458 7.44151 6.3285C7.45351 6.2295 7.45001 6.1755 7.44851 6.142C7.44651 6.0885 7.40201 6.033 7.35351 6.0095L7.06251 5.879C7.06251 5.879 6.62751 5.6895 6.36201 5.5685C6.33401 5.5563 6.30401 5.54935 6.27351 5.548C6.2393 5.54449 6.20473 5.54834 6.17213 5.55929C6.13953 5.57024 6.10966 5.58804 6.08451 5.6115V5.6105C6.08201 5.6105 6.04851 5.639 5.68701 6.077C5.66626 6.10488 5.63768 6.12595 5.60491 6.13753C5.57214 6.1491 5.53666 6.15066 5.50301 6.142C5.47043 6.13329 5.43851 6.12226 5.40751 6.109C5.34551 6.083 5.32401 6.073 5.28151 6.0545L5.27901 6.0535C4.99296 5.92861 4.72812 5.75992 4.49401 5.5535C4.43101 5.4985 4.37251 5.4385 4.31251 5.3805C4.1158 5.19212 3.94436 4.97901 3.80251 4.7465L3.77301 4.699C3.75182 4.66708 3.73469 4.63265 3.72201 4.5965C3.70301 4.523 3.75251 4.464 3.75251 4.464C3.75251 4.464 3.87401 4.331 3.93051 4.259C3.97755 4.19916 4.02144 4.13691 4.06201 4.0725C4.12101 3.9775 4.13951 3.88 4.10851 3.8045C3.96851 3.4625 3.82351 3.122 3.67451 2.784C3.64501 2.717 3.55751 2.669 3.47801 2.6595C3.45101 2.6565 3.42401 2.6535 3.39701 2.6515C3.32986 2.64816 3.26257 2.64933 3.19551 2.654Z" fill="url(#paint0_linear_3_8)"/>
<defs>
<linearGradient id="paint0_linear_3_8" x1="5" y1="0" x2="5" y2="10" gradientUnits="userSpaceOnUse">
<stop stop-color="#225809"/>
<stop offset="1" stop-color="#52E20E"/>
</linearGradient>
</defs>
</svg>
